<svg width="185" height="40" viewBox="0 0 185 40" fill="none" xmlns="http://www.w3.org/2000/svg">
<g clip-path="url(#clip0_161_127)">
<path d="M16.094 11.8747C16.7307 11.8747 17.141 12.0573 17.3214 12.4226C17.5018 12.7878 17.5938 13.3214 17.5938 14.0233C17.5938 14.7252 17.5018 15.2516 17.3214 15.6025C17.141 15.9534 16.7307 16.1289 16.094 16.1289H10.7706C8.71907 16.1289 7.29006 16.3975 6.48713 16.9275C5.68066 17.4611 5.28096 18.2059 5.28096 19.1585V33.8514C5.28096 34.6643 5.05812 35.1978 4.61598 35.4521C4.1703 35.7064 3.50885 35.8317 2.62103 35.8317C1.7332 35.8317 1.07529 35.7064 0.643761 35.4521C0.212229 35.2014 0 34.6679 0 33.8514V19.1585C0 16.7162 0.919659 14.8935 2.76605 13.6867C4.60891 12.4799 7.27945 11.8747 10.7706 11.8747H16.094Z" fill="black"/>
<path d="M28.8207 26.188V28.3366C28.8207 29.1782 29.3477 29.9015 30.4018 30.5067C31.4559 31.1119 33.1466 31.4127 35.4741 31.4127H40.2563C40.893 31.4127 41.3033 31.5882 41.4837 31.9391C41.6641 32.2901 41.7561 32.8165 41.7561 33.5184C41.7561 34.2202 41.6641 34.7538 41.4837 35.1191C41.3033 35.4843 40.8965 35.667 40.2563 35.667H35.3078C27.4624 35.667 23.5362 33.2247 23.5362 28.3402V19.205C23.5362 14.3205 27.4589 11.8782 35.3078 11.8782H44.9147C49.0744 11.8782 52.0739 12.4834 53.9203 13.6902C55.7632 14.897 56.6864 16.7377 56.6864 19.205V24.0466C56.6864 24.8594 56.5343 25.4217 56.2301 25.7296C55.9259 26.0376 55.2467 26.1916 54.1927 26.1916H28.8207V26.188ZM28.8207 22.0197H51.4054V19.1979C51.4054 18.2167 50.8854 17.4575 49.8455 16.9239C48.8056 16.3903 47.1078 16.1253 44.752 16.1253H35.4776C33.1466 16.1253 31.4559 16.419 30.4053 17.0098C29.3513 17.6007 28.8242 18.3312 28.8242 19.1979V22.0197H28.8207Z" fill="black"/>
<path d="M69.3281 33.8514C69.3281 34.6643 69.1053 35.1978 68.6631 35.4521C68.2175 35.7064 67.5525 35.8317 66.6682 35.8317C65.7839 35.8317 65.1225 35.7064 64.6909 35.4521C64.2594 35.2014 64.0472 34.6679 64.0472 33.8514V6.94718C64.0472 6.13429 64.2629 5.60071 64.6909 5.34646C65.1189 5.09221 65.7804 4.96687 66.6682 4.96687C67.556 4.96687 68.221 5.09221 68.6631 5.34646C69.1053 5.59713 69.3281 6.1307 69.3281 6.94718V33.8514Z" fill="black"/>
<path d="M76.7314 7.57744C76.7314 6.6786 76.9861 6.01969 77.5025 5.59713C78.0154 5.17457 78.8537 4.96687 80.0174 4.96687C81.1811 4.96687 82.0194 5.17815 82.5323 5.59713C83.0452 6.01969 83.3034 6.6786 83.3034 7.57744C83.3034 8.47627 83.0452 9.13518 82.5323 9.55774C82.0194 9.9803 81.1811 10.188 80.0174 10.188C78.8537 10.188 78.0118 9.97672 77.5025 9.55774C76.9896 9.13518 76.7314 8.47627 76.7314 7.57744ZM82.6773 33.8514C82.6773 34.6643 82.4545 35.1978 82.0124 35.4521C81.5667 35.7064 80.9017 35.8317 80.0174 35.8317C79.1331 35.8317 78.4717 35.7064 78.0401 35.4521C77.6086 35.2014 77.3964 34.6679 77.3964 33.8514V13.9803C77.3964 13.1674 77.6121 12.6338 78.0401 12.3796C78.4681 12.1289 79.1296 12 80.0174 12C80.9052 12 81.5702 12.1253 82.0124 12.3796C82.4545 12.6338 82.6773 13.1674 82.6773 13.9803V33.855V33.8514Z" fill="black"/>
<path d="M185 19.846C185 8.88451 176.224 0 165.397 0H111.028C106.019 0 101.456 1.9051 97.9897 5.03133C98.2266 5.40376 115.325 30.3169 115.325 30.3169L131.96 5.85497C132.321 5.2641 132.93 4.97046 133.789 4.97046C134.15 4.97046 134.511 5.02775 134.868 5.13876C135.229 5.24978 135.561 5.41092 135.865 5.6222C136.17 5.83348 136.421 6.06983 136.615 6.33841C136.81 6.6034 136.905 6.90779 136.905 7.2444C136.905 7.58102 136.792 7.88899 136.573 8.17189L118.48 34.3599C118.148 34.8362 117.716 35.2014 117.189 35.4557C116.662 35.7099 115.997 35.8353 115.194 35.8353C114.391 35.8353 113.734 35.7099 113.221 35.4557C112.708 35.205 112.287 34.8398 111.951 34.3599L94.4277 9.28559C92.5248 12.3438 91.4176 15.9642 91.4176 19.8496V20.1576C91.4176 31.1191 100.193 40.0036 111.021 40.0036H165.39C169.918 40.0036 174.081 38.4458 177.399 35.8389L156.759 23.9284C156.759 23.9284 156.399 23.692 156.257 23.3554C156.077 23.0045 155.985 22.4781 155.985 21.7762C155.985 21.0743 156.077 20.5407 156.257 20.1755C156.438 19.8102 156.844 19.6276 157.485 19.6276H166.264C167.679 19.6276 168.849 19.5595 169.776 19.4163C170.706 19.2766 171.446 19.0868 172.001 18.8469C172.556 18.6106 172.942 18.3277 173.165 18.0054C173.388 17.6831 173.497 17.325 173.497 16.9311V12.3832C173.497 12.0179 173.388 11.667 173.165 11.3303C172.942 10.9937 172.556 10.7073 172.001 10.4673C171.446 10.231 170.703 10.0412 169.776 9.89794C168.846 9.75828 167.675 9.68666 166.264 9.68666H146.969V33.8514C146.969 34.6643 146.732 35.1979 146.261 35.4521C145.791 35.7064 145.094 35.8317 144.181 35.8317C143.269 35.8317 142.614 35.7064 142.144 35.4521C141.673 35.2014 141.436 34.6679 141.436 33.8514V7.07252C141.436 5.78335 142.087 5.13518 143.393 5.13518H166.766C168.651 5.13518 170.349 5.29633 171.859 5.61862C173.37 5.94091 174.654 6.39928 175.708 6.98657C176.762 7.57744 177.572 8.29364 178.141 9.13518C178.707 9.97672 178.994 10.9185 178.994 11.957V17.2605C178.994 18.299 178.707 19.2408 178.141 20.0824C177.572 20.9239 176.762 21.6401 175.708 22.231C174.654 22.8183 173.37 23.2766 171.859 23.5989C170.349 23.9212 168.651 24.0824 166.766 24.0824L181.187 31.9033C183.578 28.6124 184.996 24.5515 184.996 20.1504V19.8424L185 19.846Z" fill="#28B9AF"/>
</g>
<defs>
<clipPath id="clip0_161_127">
<rect width="185" height="40" fill="white"/>
</clipPath>
</defs>
</svg>
