<svg width="148" height="32" viewBox="0 0 148 32" fill="none" xmlns="http://www.w3.org/2000/svg">
<path d="M12.8741 9.49888C13.3834 9.49888 13.7116 9.64497 13.8559 9.93716C14.0002 10.2293 14.0738 10.6562 14.0738 11.2176C14.0738 11.7791 14.0002 12.2002 13.8559 12.4809C13.7116 12.7616 13.3834 12.902 12.8741 12.902H8.61572C6.97463 12.902 5.83153 13.1168 5.18924 13.5408C4.54412 13.9676 4.22439 14.5634 4.22439 15.3254V27.0787C4.22439 27.7289 4.04614 28.1558 3.69245 28.3591C3.33594 28.5625 2.80683 28.6628 2.09663 28.6628C1.38644 28.6628 0.860158 28.5625 0.514963 28.3591C0.169768 28.1586 0 27.7318 0 27.0787V15.3254C0 13.3718 0.735661 11.9137 2.21264 10.9483C3.68679 9.98299 5.82304 9.49888 8.61572 9.49888H12.8741Z" fill="white"/>
<path d="M23.0545 20.9485V22.6673C23.0545 23.3404 23.4761 23.9191 24.3193 24.4032C25.1624 24.8873 26.5149 25.1279 28.3767 25.1279H32.2022C32.7115 25.1279 33.0397 25.2683 33.184 25.549C33.3283 25.8297 33.4018 26.2508 33.4018 26.8123C33.4018 27.3737 33.3283 27.8006 33.184 28.0927C33.0397 28.3849 32.7143 28.531 32.2022 28.531H28.2437C21.968 28.531 18.8273 26.5774 18.8273 22.6701V15.3626C18.8273 11.4554 21.9651 9.50175 28.2437 9.50175H35.9286C39.256 9.50175 41.6554 9.98586 43.1324 10.9512C44.6065 11.9166 45.345 13.389 45.345 15.3626V19.2355C45.345 19.8858 45.2234 20.3355 44.98 20.5819C44.7367 20.8282 44.1934 20.9514 43.3503 20.9514H23.0545V20.9485ZM23.0545 17.6142H41.1206V15.3569C41.1206 14.572 40.7047 13.9647 39.8728 13.5379C39.041 13.1111 37.6828 12.8991 35.7984 12.8991H28.3795C26.5149 12.8991 25.1624 13.134 24.3221 13.6067C23.4789 14.0793 23.0573 14.6637 23.0573 15.3569V17.6142H23.0545Z" fill="white"/>
<path d="M55.4575 27.0787C55.4575 27.7289 55.2793 28.1558 54.9256 28.3591C54.5691 28.5625 54.0371 28.6628 53.3298 28.6628C52.6224 28.6628 52.0933 28.5625 51.7481 28.3591C51.4029 28.1586 51.2331 27.7318 51.2331 27.0787V5.55725C51.2331 4.90699 51.4057 4.48017 51.7481 4.27679C52.0905 4.0734 52.6196 3.97314 53.3298 3.97314C54.04 3.97314 54.5719 4.0734 54.9256 4.27679C55.2793 4.47731 55.4575 4.90413 55.4575 5.55725V27.0787Z" fill="white"/>
<path d="M61.3796 6.06141C61.3796 5.3424 61.5833 4.81533 61.9964 4.47731C62.4067 4.13929 63.0773 3.97314 64.0082 3.97314C64.9391 3.97314 65.6097 4.14215 66.0199 4.47731C66.4302 4.81533 66.6368 5.3424 66.6368 6.06141C66.6368 6.78041 66.4302 7.30749 66.0199 7.64551C65.6097 7.98353 64.9391 8.14967 64.0082 8.14967C63.0773 8.14967 62.4039 7.98066 61.9964 7.64551C61.5862 7.30749 61.3796 6.78041 61.3796 6.06141ZM66.1359 27.0787C66.1359 27.7289 65.9577 28.1558 65.604 28.3591C65.2475 28.5625 64.7156 28.6628 64.0082 28.6628C63.3008 28.6628 62.7717 28.5625 62.4265 28.3591C62.0813 28.1586 61.9116 27.7318 61.9116 27.0787V11.1832C61.9116 10.533 62.0841 10.1062 62.4265 9.90278C62.7689 9.70226 63.298 9.59914 64.0082 9.59914C64.7184 9.59914 65.2503 9.6994 65.604 9.90278C65.9577 10.1062 66.1359 10.533 66.1359 11.1832V27.0815V27.0787Z" fill="white"/>
<path d="M147.987 15.8754C147.987 7.10697 140.967 0 132.306 0H88.8142C84.8077 0 81.1577 1.52395 78.3848 4.02471C78.5744 4.32262 92.252 24.2514 92.252 24.2514L105.559 4.68356C105.848 4.2109 106.334 3.97601 107.022 3.97601C107.31 3.97601 107.599 4.02184 107.885 4.11064C108.173 4.19945 108.439 4.32835 108.683 4.49736C108.926 4.66637 109.127 4.85543 109.283 5.07027C109.438 5.28225 109.515 5.52574 109.515 5.79501C109.515 6.06427 109.424 6.31063 109.249 6.53693L94.7759 27.4855C94.51 27.8664 94.1648 28.1586 93.7432 28.362C93.3216 28.5654 92.7896 28.6657 92.1474 28.6657C91.5051 28.6657 90.9788 28.5654 90.5685 28.362C90.1582 28.1615 89.8215 27.8693 89.5527 27.4855L75.5356 7.4278C74.0133 9.87414 73.1277 12.7702 73.1277 15.8783V16.1246C73.1277 24.893 80.1476 32 88.8086 32H132.3C135.922 32 139.252 30.7539 141.906 28.6685L125.396 19.141C125.396 19.141 125.108 18.9519 124.995 18.6827C124.85 18.4019 124.777 17.9808 124.777 17.4194C124.777 16.8579 124.85 16.4311 124.995 16.1389C125.139 15.8467 125.464 15.7007 125.976 15.7007H132.999C134.131 15.7007 135.068 15.6462 135.809 15.5316C136.553 15.4199 137.144 15.2681 137.589 15.0762C138.033 14.8871 138.341 14.6608 138.519 14.403C138.698 14.1452 138.785 13.8587 138.785 13.5436V9.90565C138.785 9.61346 138.698 9.33274 138.519 9.06347C138.341 8.7942 138.033 8.56503 137.589 8.37311C137.144 8.18405 136.55 8.03223 135.809 7.91764C135.065 7.80593 134.128 7.74864 132.999 7.74864H117.564V27.0787C117.564 27.7289 117.375 28.1558 116.999 28.3591C116.622 28.5625 116.065 28.6628 115.335 28.6628C114.605 28.6628 114.081 28.5625 113.705 28.3591C113.329 28.1586 113.139 27.7318 113.139 27.0787V5.65751C113.139 4.62626 113.66 4.10778 114.704 4.10778H133.401C134.909 4.10778 136.267 4.23668 137.475 4.49449C138.684 4.75231 139.711 5.11897 140.554 5.58876C141.397 6.06141 142.045 6.63432 142.501 7.30749C142.953 7.98066 143.182 8.73404 143.182 9.56477V13.8072C143.182 14.6379 142.953 15.3913 142.501 16.0645C142.045 16.7376 141.397 17.3105 140.554 17.7832C139.711 18.253 138.684 18.6196 137.475 18.8775C136.267 19.1353 134.909 19.2642 133.401 19.2642L144.937 25.5204C146.849 22.8878 147.984 19.6394 147.984 16.1189V15.8725L147.987 15.8754Z" fill="white"/>
</svg>
